# xmcd
#
# Track frame offsets: 
#        150
#        17430
#        34627
#        54450
#        70806
#        87326
#        107495
#        126152
#        146172
#        166925
#        184459
#        198341
#        216661
#        234625
#        252146
#        269887
#        283744
#        299240
#        316632
#        331408
#        343627
#
# Disc length: 4785 seconds
#
# Revision: 0
# Processed by: cddbd v1.5.2PL0 Copyright (c) Steve Scherf et al.
# Submitted via: ExactAudioCopy v0.99pb4
#
DISCID=4e12af15
DTITLE=Various Artist - prevue promo 1112A-2
DYEAR=2003
DGENRE=pop
TTITLE0=Jewel - Intuition
TTITLE1=Deborah Cox - Play Your Part
TTITLE2=Ringo Starr and Eric Clapton - Never Without You
TTITLE3=Danny Wood - When The Lights Go Out(Album Mix)
TTITLE4=Becky Baeling - Getaway(Dave Aude Club Edit)
TTITLE5=Madonna - American Life(Radio Edit)
TTITLE6=Ginuwine with R. Kelly, Baby and Clipse - Hell Yeah(Lyric - "Rem
TTITLE6=ix Radio Edit")
TTITLE7=Snoop Dogg - Girls, Girls(Lyrics!! - "Clean" -  Movie "Malibu'
TTITLE7=s Most Wanted")
TTITLE8=Jenifer Jackson - So High( Album Mix)
TTITLE9=John Hiatt and The Goners - My Baby Blue
TTITLE10=Dan Bern - Baby Bye Bye
TTITLE11=Iguanas, The - Flame On
TTITLE12=Third Eye Blind - Blinded (When I See You)
TTITLE13=Three Days Grace - (I Hate) Everything About You
TTITLE14=Shinedown - Fly From The Inside
TTITLE15=Queens Of The Stone Age - Go With The Flow
TTITLE16=Switchfoot - Meant To Live
TTITLE17=Manmade god - Safe Passage
TTITLE18=Pacifier - Comfort Me
TTITLE19=Vendetta Red - Shatterday
TTITLE20=40 Foot Echo - Save Me
EXTD=
EXTT0=
EXTT1=
EXTT2=
EXTT3=
EXTT4=
EXTT5=
EXTT6=
EXTT7=
EXTT8=
EXTT9=
EXTT10=
EXTT11=
EXTT12=
EXTT13=
EXTT14=
EXTT15=
EXTT16=
EXTT17=
EXTT18=
EXTT19=
EXTT20=
PLAYORDER=
